# xmcd
#
# Track frame offsets: 
#        150
#        20608
#        35936
#        50637
#        68356
#        85426
#        101338
#        120334
#        135475
#        147807
#
# Disc length: 2166 seconds
#
# Revision: 0
# Processed by: cddbd v1.5.2PL0 Copyright (c) Steve Scherf et al.
# Submitted via: ExactAudioCopy v0.95b4
#
DISCID=8308740a
DTITLE=Jeffrey Halford And The Healers - Broken Chord
DYEAR=2007
DGENRE=Ameicana
TTITLE0=Dead Man's Hand
TTITLE1=Ninth Ward
TTITLE2=Rock 'n' Fire
TTITLE3=Louisiana Man
TTITLE4=Chicken Bones Jones
TTITLE5=Running Crazy
TTITLE6=10 Minutes
TTITLE7=In A Dream
TTITLE8=Rockabilly Bride
TTITLE9=Two Kings
EXTD=
EXTT0=
EXTT1=
EXTT2=
EXTT3=
EXTT4=
EXTT5=
EXTT6=
EXTT7=
EXTT8=
EXTT9=
PLAYORDER=
